<svg width="1512" height="624" viewBox="0 0 1512 624" fill="none" xmlns="http://www.w3.org/2000/svg">
<g opacity="0.6" filter="url(#filter0_f_0_203)">
<path d="M2015.63 86.5009C1832.51 215.963 1401.25 334.538 1141.21 -226.86C881.169 -788.258 233.279 -555.488 -58.1608 -368.929" stroke="#5490ED" stroke-width="11"/>
<path d="M1444.17 1315.13C1352.04 1390.66 1097.77 1478.26 817.718 1224.35C479.472 932.486 311.154 701.612 -383.925 660.346" stroke="#5490ED" stroke-width="11"/>
<path d="M1499.08 1197.46C1396.84 1278.99 1122.91 1370.03 845.077 1081.95C515.519 760.139 293.916 580.781 -356.314 564.829" stroke="#5490ED" stroke-width="11"/>
<path d="M1554.57 1078.51C1442.23 1166.03 1148.63 1260.51 873.02 938.27C552.152 586.507 277.263 458.665 -328.119 468.027" stroke="#5490ED" stroke-width="11"/>
<path d="M1620.44 936.792C1497.98 1030.3 1184.72 1128.23 911.333 771.823C599.154 390.112 270.979 313.786 -289.553 348.462" stroke="#5490ED" stroke-width="11"/>
<path d="M1686.3 795.077C1553.74 894.581 1220.81 995.946 949.646 605.376C646.157 193.717 264.696 168.907 -250.988 228.897" stroke="#5490ED" stroke-width="11"/>
<path d="M1752.17 653.361C1609.49 758.857 1256.9 863.664 987.96 438.928C693.16 -2.6784 258.413 24.0276 -212.422 109.332" stroke="#5490ED" stroke-width="11"/>
<path d="M1818.04 511.646C1665.25 623.134 1292.99 731.383 1026.27 272.481C740.162 -199.073 252.129 -120.851 -173.857 -10.2332" stroke="#5490ED" stroke-width="11"/>
<path d="M1883.9 369.931C1721 487.41 1329.07 599.101 1064.59 106.034C787.164 -395.468 245.845 -265.73 -135.292 -129.798" stroke="#5490ED" stroke-width="11"/>
<path d="M1949.77 228.216C1776.76 351.686 1365.16 466.819 1102.9 -60.4133C834.167 -591.863 239.562 -410.609 -96.7266 -249.364" stroke="#5490ED" stroke-width="11"/>
</g>
<defs>
<filter id="filter0_f_0_203" x="-471.461" y="-618.887" width="2524.27" height="2277.08" filterUnits="userSpaceOnUse" color-interpolation-filters="sRGB">
<feFlood flood-opacity="0" result="BackgroundImageFix"/>
<feBlend mode="normal" in="SourceGraphic" in2="BackgroundImageFix" result="shape"/>
<feGaussianBlur stdDeviation="17" result="effect1_foregroundBlur_0_203"/>
</filter>
</defs>
</svg>
